<mxfile host="app.diagrams.net" modified="2023-11-02T10:17:57.472Z" agent="Mozilla/5.0 (Macintosh; Intel Mac OS X 10_15_7) AppleWebKit/537.36 (KHTML, like Gecko) Chrome/118.0.0.0 Safari/537.36" etag="8Pm22aUGB1ptvq63_gLi" version="22.0.8" type="github">
  <diagram name="Page-1" id="929967ad-93f9-6ef4-fab6-5d389245f69c">
    <mxGraphModel dx="1283" dy="818" grid="1" gridSize="10" guides="1" tooltips="1" connect="1" arrows="1" fold="1" page="1" pageScale="1.5" pageWidth="1169" pageHeight="826" background="none" math="0" shadow="0">
      <root>
        <mxCell id="0" style=";html=1;" />
        <mxCell id="1" style=";html=1;" parent="0" />
        <mxCell id="1672d66443f91eb5-23" value="Title" style="text;strokeColor=none;fillColor=none;html=1;fontSize=24;fontStyle=1;verticalAlign=middle;align=center;" parent="1" vertex="1">
          <mxGeometry x="120" y="40" width="1510" height="40" as="geometry" />
        </mxCell>
        <mxCell id="likXTlJJLtv1iGbb97qb-2" value="" style="rounded=0;whiteSpace=wrap;html=1;" vertex="1" parent="1">
          <mxGeometry x="320" y="300" width="750" height="1140" as="geometry" />
        </mxCell>
        <mxCell id="likXTlJJLtv1iGbb97qb-3" value="Actor" style="shape=umlActor;verticalLabelPosition=bottom;verticalAlign=top;html=1;" vertex="1" parent="1">
          <mxGeometry x="200" y="510" width="30" height="60" as="geometry" />
        </mxCell>
        <mxCell id="likXTlJJLtv1iGbb97qb-4" value="Actor" style="shape=umlActor;verticalLabelPosition=bottom;verticalAlign=top;html=1;" vertex="1" parent="1">
          <mxGeometry x="180" y="660" width="30" height="60" as="geometry" />
        </mxCell>
        <mxCell id="likXTlJJLtv1iGbb97qb-5" value="Actor" style="shape=umlActor;verticalLabelPosition=bottom;verticalAlign=top;html=1;" vertex="1" parent="1">
          <mxGeometry x="1150" y="590" width="30" height="60" as="geometry" />
        </mxCell>
        <mxCell id="likXTlJJLtv1iGbb97qb-6" value="Actor" style="shape=umlActor;verticalLabelPosition=bottom;verticalAlign=top;html=1;" vertex="1" parent="1">
          <mxGeometry x="180" y="850" width="30" height="60" as="geometry" />
        </mxCell>
        <mxCell id="likXTlJJLtv1iGbb97qb-7" value="" style="rounded=0;whiteSpace=wrap;html=1;" vertex="1" parent="1">
          <mxGeometry x="480" y="390" width="430" height="190" as="geometry" />
        </mxCell>
        <mxCell id="likXTlJJLtv1iGbb97qb-8" value="Title" style="text;strokeColor=none;fillColor=none;html=1;fontSize=24;fontStyle=1;verticalAlign=middle;align=center;" vertex="1" parent="1">
          <mxGeometry x="640" y="310" width="100" height="40" as="geometry" />
        </mxCell>
        <mxCell id="likXTlJJLtv1iGbb97qb-9" value="계정 관리" style="text;strokeColor=none;fillColor=none;html=1;fontSize=24;fontStyle=1;verticalAlign=middle;align=center;" vertex="1" parent="1">
          <mxGeometry x="650" y="400" width="100" height="40" as="geometry" />
        </mxCell>
        <mxCell id="likXTlJJLtv1iGbb97qb-10" value="" style="rounded=0;whiteSpace=wrap;html=1;" vertex="1" parent="1">
          <mxGeometry x="480" y="600" width="430" height="190" as="geometry" />
        </mxCell>
        <mxCell id="likXTlJJLtv1iGbb97qb-11" value="동아리 관리" style="text;strokeColor=none;fillColor=none;html=1;fontSize=24;fontStyle=1;verticalAlign=middle;align=center;" vertex="1" parent="1">
          <mxGeometry x="650" y="610" width="100" height="40" as="geometry" />
        </mxCell>
        <mxCell id="likXTlJJLtv1iGbb97qb-12" value="" style="rounded=0;whiteSpace=wrap;html=1;" vertex="1" parent="1">
          <mxGeometry x="480" y="810" width="430" height="190" as="geometry" />
        </mxCell>
        <mxCell id="likXTlJJLtv1iGbb97qb-13" value="동아리 정보 탐색" style="text;strokeColor=none;fillColor=none;html=1;fontSize=24;fontStyle=1;verticalAlign=middle;align=center;" vertex="1" parent="1">
          <mxGeometry x="650" y="820" width="100" height="40" as="geometry" />
        </mxCell>
        <mxCell id="likXTlJJLtv1iGbb97qb-14" value="" style="rounded=0;whiteSpace=wrap;html=1;" vertex="1" parent="1">
          <mxGeometry x="480" y="1020" width="430" height="190" as="geometry" />
        </mxCell>
        <mxCell id="likXTlJJLtv1iGbb97qb-15" value="동아리원 후보 탐색" style="text;strokeColor=none;fillColor=none;html=1;fontSize=24;fontStyle=1;verticalAlign=middle;align=center;" vertex="1" parent="1">
          <mxGeometry x="650" y="1030" width="100" height="40" as="geometry" />
        </mxCell>
        <mxCell id="likXTlJJLtv1iGbb97qb-16" value="" style="rounded=0;whiteSpace=wrap;html=1;" vertex="1" parent="1">
          <mxGeometry x="480" y="1230" width="430" height="190" as="geometry" />
        </mxCell>
        <mxCell id="likXTlJJLtv1iGbb97qb-17" value="다이렉트 메시지" style="text;strokeColor=none;fillColor=none;html=1;fontSize=24;fontStyle=1;verticalAlign=middle;align=center;" vertex="1" parent="1">
          <mxGeometry x="650" y="1240" width="100" height="40" as="geometry" />
        </mxCell>
        <mxCell id="likXTlJJLtv1iGbb97qb-19" value="회원가입" style="ellipse;whiteSpace=wrap;html=1;" vertex="1" parent="1">
          <mxGeometry x="550" y="470" width="140" height="70" as="geometry" />
        </mxCell>
      </root>
    </mxGraphModel>
  </diagram>
</mxfile>
